HIERARCHY
ROOT Hips
{
	OFFSET 0.000000 0.000000 0.000000
	CHANNELS 6 Xposition Yposition Zposition Xrotation Yrotation Zrotation
	JOINT LeftUpLeg_virtual
	{
		OFFSET 0.000000 0.000000 0.000000
		CHANNELS 3 Xrotation Yrotation Zrotation
		JOINT LeftUpLeg
		{
			OFFSET 15.427100 -6.655098 0.678600
			CHANNELS 3 Xrotation Yrotation Zrotation
			JOINT LeftLeg
			{
				OFFSET 4.081073 -39.591068 13.024000
				CHANNELS 3 Xrotation Yrotation Zrotation
				JOINT LeftFoot
				{
					OFFSET -4.081074 -37.707932 -15.979700
					CHANNELS 3 Xrotation Yrotation Zrotation
					JOINT LeftToeBase
					{
						OFFSET 5.346399 -15.068900 20.645000
						CHANNELS 3 Xrotation Yrotation Zrotation
						JOINT LeftToe_End
						{
							OFFSET 2.754700 0.931300 11.300900
							CHANNELS 3 Xrotation Yrotation Zrotation
							End Site
							{
								OFFSET 0 0 0
							}
						}
					}
				}
			}
		}
	}
	JOINT RightUpLeg_virtual
	{
		OFFSET 0.000000 0.000000 0.000000
		CHANNELS 3 Xrotation Yrotation Zrotation
		JOINT RightUpLeg
		{
			OFFSET -15.569500 -6.655098 0.678600
			CHANNELS 3 Xrotation Yrotation Zrotation
			JOINT RightLeg
			{
				OFFSET -4.081825 -39.591045 13.023800
				CHANNELS 3 Xrotation Yrotation Zrotation
				JOINT RightFoot
				{
					OFFSET 4.081824 -37.707954 -15.979600
					CHANNELS 3 Xrotation Yrotation Zrotation
					JOINT RightToeBase
					{
						OFFSET -5.346400 -15.068900 20.645000
						CHANNELS 3 Xrotation Yrotation Zrotation
						JOINT RightToe_End
						{
							OFFSET -2.754700 0.931300 11.300900
							CHANNELS 3 Xrotation Yrotation Zrotation
							End Site
							{
								OFFSET 0 0 0
							}
						}
					}
				}
			}
		}
	}
	JOINT Spine_virtual
	{
		OFFSET 0.000000 0.000000 0.000000
		CHANNELS 3 Xrotation Yrotation Zrotation
		JOINT Spine
		{
			OFFSET -0.279200 12.230698 -2.892100
			CHANNELS 3 Xrotation Yrotation Zrotation
			JOINT Spine1
			{
				OFFSET -0.232667 10.192268 -1.242267
				CHANNELS 3 Xrotation Yrotation Zrotation
				JOINT Spine1_split
				{
					OFFSET -0.232667 10.192268 -1.242267
					CHANNELS 3 Xrotation Yrotation Zrotation
					JOINT Spine2
					{
						OFFSET -0.232667 10.192268 -1.242267
						CHANNELS 3 Xrotation Yrotation Zrotation
						JOINT Neck_virtual
						{
							OFFSET 0.000000 0.000000 0.000000
							CHANNELS 3 Xrotation Yrotation Zrotation
							JOINT Neck
							{
								OFFSET -0.418800 17.814194 8.416900
								CHANNELS 3 Xrotation Yrotation Zrotation
								JOINT Head
								{
									OFFSET 0.000000 7.031097 3.806800
									CHANNELS 3 Xrotation Yrotation Zrotation
									JOINT HeadTop_End
									{
										OFFSET 0.000000 24.646606 12.978600
										CHANNELS 3 Xrotation Yrotation Zrotation
										End Site
										{
											OFFSET 0 0 0
										}
									}
								}
							}
						}
						JOINT LeftShoulder_virtual
						{
							OFFSET 0.000000 0.000000 0.000000
							CHANNELS 3 Xrotation Yrotation Zrotation
							JOINT LeftShoulder
							{
								OFFSET 8.476499 7.247704 -3.868750
								CHANNELS 3 Xrotation Yrotation Zrotation
								JOINT LeftShoulder_split
								{
									OFFSET 8.476499 7.247704 -3.868750
									CHANNELS 3 Xrotation Yrotation Zrotation
									JOINT LeftArm
									{
										OFFSET 9.308998 -2.777710 0.208600
										CHANNELS 3 Xrotation Yrotation Zrotation
										JOINT LeftForeArm
										{
											OFFSET 29.972298 0.000000 0.000000
											CHANNELS 3 Xrotation Yrotation Zrotation
											JOINT LeftHand
											{
												OFFSET 26.026505 0.000000 0.000000
												CHANNELS 3 Xrotation Yrotation Zrotation
												End Site
												{
													OFFSET 0 0 0
												}
											}
										}
									}
								}
							}
						}
						JOINT RightShoulder_virtual
						{
							OFFSET 0.000000 0.000000 0.000000
							CHANNELS 3 Xrotation Yrotation Zrotation
							JOINT RightShoulder
							{
								OFFSET -7.570500 7.247704 -3.868750
								CHANNELS 3 Xrotation Yrotation Zrotation
								JOINT RightShoulder_split
								{
									OFFSET -7.570500 7.247704 -3.868750
									CHANNELS 3 Xrotation Yrotation Zrotation
									JOINT RightArm
									{
										OFFSET -9.308998 -2.777710 0.208500
										CHANNELS 3 Xrotation Yrotation Zrotation
										JOINT RightForeArm
										{
											OFFSET -29.972300 0.000000 0.000000
											CHANNELS 3 Xrotation Yrotation Zrotation
											JOINT RightHand
											{
												OFFSET -26.026505 0.000000 0.000000
												CHANNELS 3 Xrotation Yrotation Zrotation
												End Site
												{
													OFFSET 0 0 0
												}
											}
										}
									}
								}
							}
						}
					}
				}
			}
		}
	}
}
MOTION
Frames: 11
Frame Time: 0.03333333
2.472836 72.383438 0.398209 0.000000 0.000000 0.000000 -1.098928 -48.316379 4.191541 -36.494517 7.254530 25.117370 53.042300 -9.827952 -3.122347 -17.849301 -9.629260 -10.589529 -3.040970 -1.096603 0.534337 0.000000 0.000000 0.000000 -2.685342 -47.378611 4.420406 -17.418710 -12.377851 -39.570766 57.889139 2.068522 -4.866959 -27.465739 -14.975975 28.787526 -1.276903 0.437480 1.254560 0.000000 0.000000 0.000000 -0.731478 -47.470416 5.083335 8.763963 11.784477 -3.436822 0.792066 4.018132 -1.824483 0.495098 -1.764786 1.228439 0.000000 0.000000 0.000000 2.071853 4.020324 -1.792047 -8.551156 11.795293 4.018650 6.920266 16.626805 1.263522 0.000000 0.000000 0.000000 1.585609 4.060808 -1.344219 0.777403 0.183867 -4.304789 -0.720799 -3.816737 1.481658 5.797727 1.158019 -39.294348 178.291310 -49.279760 178.559614 0.000000 0.000000 0.000000 1.348238 3.652938 -1.637246 1.355558 13.601160 -4.626523 -6.886123 -1.340126 2.311845 -60.034781 21.198250 64.536477 -165.970783 79.381422 164.689439 0.000000 0.000000 0.000000 
2.803337 72.714256 0.508026 0.000000 0.000000 0.000000 -0.984182 -53.128965 3.865909 -32.195613 8.428049 25.563168 52.115744 -9.307853 -4.624297 -21.733213 -5.522532 -9.812895 -3.519852 -1.175709 0.928609 0.000000 0.000000 0.000000 -2.465492 -51.861995 4.242788 -20.986099 -6.620354 -39.662960 59.480088 3.397872 -5.601652 -26.276983 -12.721437 28.652442 -0.468504 0.559851 1.186101 0.000000 0.000000 0.000000 -0.167570 -51.406500 5.183199 9.034821 11.305800 -2.574564 1.069521 3.895988 -1.758489 0.504583 -1.645159 1.083768 0.000000 0.000000 0.000000 2.387737 3.931498 -1.681984 -8.666292 12.943893 3.663848 5.963352 19.655949 -0.538669 0.000000 0.000000 0.000000 1.586789 3.976918 -1.258078 1.002761 0.714940 -2.412750 -0.091877 -4.297939 0.602026 1.904335 5.622999 -34.257288 178.680740 -53.935425 178.831373 0.000000 0.000000 0.000000 1.342290 3.558890 -1.484309 1.104388 11.119795 -2.574781 -6.225967 -1.500105 2.461830 -61.103446 23.823418 69.849865 -172.129278 75.007608 170.750454 0.000000 0.000000 0.000000 
3.050532 72.868813 0.440975 0.000000 0.000000 0.000000 -0.946204 -57.968703 3.062242 -28.555074 8.439623 26.001087 52.276680 -8.700771 -5.289895 -25.683473 -1.689651 -8.910865 -3.657495 -1.195881 0.923214 0.000000 0.000000 0.000000 -2.364584 -56.078493 3.508902 -23.709620 -1.991471 -38.936415 59.422536 4.561757 -6.104014 -24.971189 -10.569058 28.562357 -0.047911 0.741061 1.064450 0.000000 0.000000 0.000000 0.563320 -55.008616 4.805406 9.223754 10.324482 -1.901314 1.345968 3.332826 -1.690675 0.793060 -1.567387 0.937487 0.000000 0.000000 0.000000 2.669564 3.295146 -1.534132 -8.749487 14.378276 3.326623 5.316537 22.785260 -2.532020 0.000000 0.000000 0.000000 1.669676 3.349256 -1.208280 1.134411 1.091622 -0.156526 -0.153018 -2.903943 -0.206863 -6.626512 6.137109 -26.692007 178.584011 -66.266154 178.812467 0.000000 0.000000 0.000000 1.444507 2.982389 -1.442688 0.897859 9.534206 -0.892717 -5.741859 -2.228765 2.332427 -61.564375 26.483847 74.300389 -175.988444 71.017589 174.380330 0.000000 0.000000 0.000000 
3.189085 72.913017 0.129417 0.000000 0.000000 0.000000 -1.310641 -61.533256 1.710929 -26.500362 7.051595 26.553532 53.636000 -8.528447 -4.910436 -28.587779 1.159250 -8.764536 -3.244758 -1.124970 0.525025 0.000000 0.000000 0.000000 -2.682083 -59.107883 2.112675 -24.945637 0.607490 -37.697344 57.921869 5.224619 -6.277092 -24.011894 -8.987942 28.342958 -0.125179 0.946299 0.989713 0.000000 0.000000 0.000000 1.004590 -57.565265 3.849774 9.309675 8.801244 -1.422998 1.520808 2.324158 -1.665675 1.149352 -1.339708 0.703181 0.000000 0.000000 0.000000 2.785546 2.121171 -1.473366 -8.649246 15.914375 3.107863 5.452298 25.700496 -4.574186 0.000000 0.000000 0.000000 1.996458 2.164459 -1.277701 1.213319 1.186164 1.968402 -1.117723 -0.180644 -0.829326 -17.436607 1.743807 -19.231287 171.822329 -85.993666 172.157869 0.000000 0.000000 0.000000 1.632060 1.895512 -1.536697 0.761840 8.838200 0.379679 -5.890105 -2.975865 1.812915 -59.885371 29.242157 77.421731 -178.458158 67.069794 176.509696 0.000000 0.000000 0.000000 
3.196339 72.872627 -0.254402 0.000000 0.000000 0.000000 -2.052681 -62.810529 -0.047599 -26.360850 4.791992 27.052924 55.703345 -8.850943 -3.613420 -29.469357 2.617102 -9.930223 -2.849374 -0.948093 0.011977 0.000000 0.000000 0.000000 -3.327037 -60.342064 0.315054 -24.436004 0.776520 -36.345441 55.651695 5.155323 -6.195204 -23.754862 -8.335668 27.927703 -0.651655 1.126788 1.008518 0.000000 0.000000 0.000000 1.124037 -58.719095 2.550582 9.247531 6.951489 -1.171579 1.585128 1.106215 -1.743742 1.222580 -1.144551 0.235918 0.000000 0.000000 0.000000 2.707641 0.719066 -1.573772 -8.457515 17.199810 3.039361 6.237452 27.913621 -6.275844 0.000000 0.000000 0.000000 2.529499 0.690055 -1.436739 1.251566 1.172378 3.431949 -2.646389 2.534357 -1.056345 -26.564245 -5.647126 -15.008227 2.825498 -72.473416 3.053498 0.000000 0.000000 0.000000 1.931881 0.575628 -1.764344 0.747620 9.155292 1.154405 -6.692632 -3.072280 1.565954 -55.051779 32.129292 78.205188 -179.527356 62.646864 177.257233 0.000000 0.000000 0.000000 
3.111887 72.764816 -0.525414 0.000000 0.000000 0.000000 -2.503372 -61.574210 -1.447247 -27.998679 2.484111 27.127572 57.729476 -9.269064 -1.835650 -28.469473 2.669321 -11.843043 -2.975601 -0.737131 -0.340463 0.000000 0.000000 0.000000 -3.951390 -59.409416 -1.313350 -22.332002 -1.242916 -35.187844 53.392456 4.386351 -5.996426 -24.440640 -8.737302 27.472549 -1.128643 1.263227 1.075443 0.000000 0.000000 0.000000 0.918916 -58.001290 1.312053 9.111089 5.193791 -1.160489 1.578468 0.095961 -1.923774 1.003876 -0.677417 -0.084537 0.000000 0.000000 0.000000 2.436849 -0.453827 -1.808470 -8.285194 17.815842 3.084665 7.282004 28.607016 -7.105446 0.000000 0.000000 0.000000 3.139101 -0.614719 -1.643613 1.202875 1.412825 4.149982 -4.377306 3.934670 -1.768323 -32.347571 -12.790544 -15.611628 2.459035 -58.115593 2.347346 0.000000 0.000000 0.000000 2.301850 -0.577665 -2.075894 0.871839 10.518711 1.122702 -7.536424 -2.904940 1.966498 -46.912519 34.741925 75.721396 -179.662143 57.454356 177.163359 0.000000 0.000000 0.000000 
2.902515 72.572227 -0.620197 0.000000 0.000000 0.000000 -2.411135 -58.138693 -1.994096 -31.052823 0.797496 26.501057 59.227070 -9.284332 -0.056008 -26.325977 1.353640 -13.326817 -3.756411 -0.535021 -0.345582 0.000000 0.000000 0.000000 -3.918317 -56.330855 -2.022845 -19.169607 -4.922008 -34.261632 51.717526 3.136977 -5.788575 -26.087633 -10.026149 27.129341 -1.253323 1.366193 1.094008 0.000000 0.000000 0.000000 0.541629 -55.458629 0.474391 9.061189 3.999814 -1.431526 1.585691 -0.349678 -2.140592 0.872209 -0.088843 -0.191499 0.000000 0.000000 0.000000 2.105318 -0.975923 -2.114755 -8.349553 17.479656 3.109097 8.170946 27.350292 -6.667450 0.000000 0.000000 0.000000 3.591741 -1.215396 -1.828976 0.988264 1.963133 3.865823 -4.655920 3.814271 -2.767669 -34.407464 -17.558441 -20.654811 3.148622 -55.850180 2.575685 0.000000 0.000000 0.000000 2.643692 -1.123571 -2.348984 1.175714 12.702718 0.357423 -8.175887 -2.505966 2.981661 -37.052724 35.882255 69.601608 -179.202703 52.364499 176.794515 0.000000 0.000000 0.000000 
2.649252 72.193588 -0.350842 0.000000 0.000000 0.000000 -1.753132 -53.546873 -1.654054 -35.175433 0.113983 25.316431 60.175462 -8.726471 1.388242 -23.533333 -0.934451 -13.709062 -4.383857 -0.356639 -0.203745 0.000000 0.000000 0.000000 -3.231606 -51.684625 -1.743974 -15.663558 -9.563769 -33.574058 50.854197 1.786802 -5.620845 -28.355619 -11.869972 27.073101 -1.057629 1.445880 0.971930 0.000000 0.000000 0.000000 0.295349 -51.422063 0.276474 9.158695 3.778231 -1.989005 1.667007 0.043460 -2.334278 0.890964 -0.002233 -0.037392 0.000000 0.000000 0.000000 1.912298 -0.594905 -2.336053 -8.780430 16.119105 2.993005 8.522222 23.857786 -4.900114 0.000000 0.000000 0.000000 3.702571 -0.804261 -1.930007 0.628122 2.620976 2.798486 -3.947425 2.300911 -3.905560 -32.173452 -19.684189 -28.366368 4.229073 -65.158932 3.495596 0.000000 0.000000 0.000000 2.928598 -0.764139 -2.516318 1.652092 15.550199 -1.337639 -8.192538 -2.036388 4.093568 -28.547438 34.439412 60.897413 -178.524220 49.629865 176.558928 0.000000 0.000000 0.000000 
2.399107 71.677742 0.181824 0.000000 0.000000 0.000000 -0.837341 -48.587626 -0.646508 -39.956911 0.372268 23.911388 60.900685 -7.785926 2.429250 -20.462386 -3.745844 -12.878568 -4.195697 -0.242265 -0.104383 0.000000 0.000000 0.000000 -2.307049 -46.341177 -0.790280 -12.335475 -14.451249 -33.039524 50.560069 0.568933 -5.447090 -30.747739 -13.929317 27.281676 -0.528050 1.509093 0.720267 0.000000 0.000000 0.000000 0.108690 -46.499115 0.590671 9.446660 4.758348 -2.771312 1.813270 1.255713 -2.404793 0.911130 -0.061887 0.513553 0.000000 0.000000 0.000000 1.881659 0.640220 -2.387206 -9.620062 13.948005 2.656618 8.458431 18.367024 -2.216663 0.000000 0.000000 0.000000 3.442733 0.575807 -1.946122 0.260341 3.014433 1.292133 -2.178058 0.142937 -4.460136 -26.457361 -20.626353 -37.084567 8.074656 -80.439548 7.596710 0.000000 0.000000 0.000000 3.085824 0.491374 -2.525184 2.267155 18.665749 -3.745279 -7.664126 -1.576948 4.695229 -24.587071 30.723752 51.664203 -177.646322 51.812743 176.367478 0.000000 0.000000 0.000000 
2.196588 71.057693 0.657101 0.000000 0.000000 0.000000 0.020053 -43.954791 0.618783 -44.593438 1.084711 22.476624 61.425770 -6.866656 3.281394 -17.321542 -6.749765 -11.474380 -3.660534 -0.196802 0.152662 0.000000 0.000000 0.000000 -1.459257 -41.192369 0.424394 -9.598385 -18.978891 -32.647549 50.397575 -0.327166 -5.215973 -32.594052 -15.808811 27.717635 -0.142239 1.542183 0.405892 0.000000 0.000000 0.000000 0.095675 -41.652802 1.191111 9.883201 6.823407 -3.686634 2.020612 3.042639 -2.355763 1.000239 -0.301787 0.937002 0.000000 0.000000 0.000000 2.016407 2.459348 -2.270801 -10.783210 11.291432 2.103025 8.293338 11.755564 0.724742 0.000000 0.000000 0.000000 2.919001 2.618025 -1.889959 0.003618 2.536196 -0.532735 0.190268 -2.003019 -3.381870 -17.353409 -21.750439 -44.675554 170.056684 -85.952036 170.307557 0.000000 0.000000 0.000000 3.146722 2.434500 -2.377964 2.947620 21.670901 -6.322981 -6.997759 -0.789132 4.281951 -26.387977 26.272121 43.362993 -176.192338 61.320475 175.757870 0.000000 0.000000 0.000000 
2.149995 70.511749 1.003006 0.000000 0.000000 0.000000 0.644946 -40.200506 1.784764 -48.129235 1.689416 21.190616 61.563254 -6.388973 4.038425 -14.683361 -9.584257 -10.328417 -3.571012 -0.228439 0.644105 0.000000 0.000000 0.000000 -0.862812 -37.127112 1.556157 -7.625077 -22.597392 -32.442678 49.975449 -0.821422 -4.908474 -33.266955 -17.225274 28.494351 -0.339902 1.523574 0.171647 0.000000 0.000000 0.000000 0.189833 -37.584038 1.912702 10.371787 9.586383 -4.599703 2.188210 5.034611 -2.224082 0.855059 -0.779140 1.126846 0.000000 0.000000 0.000000 2.246294 4.448252 -2.045879 -11.996443 8.541204 1.516307 8.235796 5.053479 3.265680 0.000000 0.000000 0.000000 2.388801 4.819000 -1.822217 -0.018000 1.355109 -2.286550 1.732770 -3.447910 -1.438696 -5.809407 -23.799364 -49.592733 179.652348 -78.613251 -179.030350 0.000000 0.000000 0.000000 3.120010 4.585412 -2.184208 3.587544 24.070878 -8.620779 -6.761125 0.170037 2.841498 -32.508398 22.558114 37.323996 -170.861185 78.794312 171.248525 0.000000 0.000000 0.000000 
